<svg width="60" height="60" viewBox="0 0 60 60" fill="none" xmlns="http://www.w3.org/2000/svg">
<path fill-rule="evenodd" clip-rule="evenodd" d="M30 0.666626C13.8 0.666626 0.666687 13.8 0.666687 30C0.666687 46.2 13.8 59.3333 30 59.3333C46.2 59.3333 59.3334 46.2 59.3334 30C59.3334 13.8 46.2 0.666626 30 0.666626ZM32.6667 40.6666C32.6667 41.3739 32.3857 42.0521 31.8856 42.5522C31.3855 43.0523 30.7073 43.3333 30 43.3333C29.2928 43.3333 28.6145 43.0523 28.1144 42.5522C27.6143 42.0521 27.3334 41.3739 27.3334 40.6666V32.6666H19.3334C18.6261 32.6666 17.9478 32.3857 17.4477 31.8856C16.9476 31.3855 16.6667 30.7072 16.6667 30C16.6667 29.2927 16.9476 28.6144 17.4477 28.1143C17.9478 27.6142 18.6261 27.3333 19.3334 27.3333H27.3334V19.3333C27.3334 18.626 27.6143 17.9478 28.1144 17.4477C28.6145 16.9476 29.2928 16.6666 30 16.6666C30.7073 16.6666 31.3855 16.9476 31.8856 17.4477C32.3857 17.9478 32.6667 18.626 32.6667 19.3333V27.3333H40.6667C41.3739 27.3333 42.0522 27.6142 42.5523 28.1143C43.0524 28.6144 43.3334 29.2927 43.3334 30C43.3334 30.7072 43.0524 31.3855 42.5523 31.8856C42.0522 32.3857 41.3739 32.6666 40.6667 32.6666H32.6667V40.6666Z" fill="url(#paint0_linear_14_111)"/>
<defs>
<linearGradient id="paint0_linear_14_111" x1="0.666687" y1="30" x2="59.3334" y2="30" gradientUnits="userSpaceOnUse">
<stop stop-color="#2AF598"/>
<stop offset="1" stop-color="#009EFD"/>
</linearGradient>
</defs>
</svg>
