<svg width="23" height="23" viewBox="0 0 23 23" fill="none" xmlns="http://www.w3.org/2000/svg">
<path d="M20.7953 20.9182L16.0584 16.1814L20.7953 20.9182ZM16.0584 16.1814C16.8187 15.4211 17.4218 14.5185 17.8333 13.5251C18.2447 12.5318 18.4565 11.4671 18.4565 10.3919C18.4565 9.31669 18.2447 8.25202 17.8333 7.25866C17.4218 6.2653 16.8187 5.36271 16.0584 4.60242C15.2982 3.84214 14.3956 3.23905 13.4022 2.82759C12.4089 2.41612 11.3442 2.20435 10.269 2.20435C9.19377 2.20435 8.12909 2.41612 7.13573 2.82759C6.14237 3.23905 5.23978 3.84214 4.4795 4.60242C2.94404 6.13789 2.08142 8.22042 2.08142 10.3919C2.08142 12.5634 2.94404 14.6459 4.4795 16.1814C6.01496 17.7168 8.0975 18.5794 10.269 18.5794C12.4404 18.5794 14.523 17.7168 16.0584 16.1814V16.1814Z" stroke="white" stroke-width="3" stroke-linecap="round" stroke-linejoin="round"/>
</svg>
